<?xml version="1.0" standalone="no"?>
<!DOCTYPE svg PUBLIC "-//W3C//DTD SVG 20010904//EN"
 "http://www.w3.org/TR/2001/REC-SVG-20010904/DTD/svg10.dtd">
<svg version="1.0" xmlns="http://www.w3.org/2000/svg"
 width="2501.000000pt" height="2501.000000pt" viewBox="0 0 2501.000000 2501.000000"
 preserveAspectRatio="xMidYMid meet">
<metadata>
Created by potrace 1.16, written by Peter Selinger 2001-2019
</metadata>
<g transform="translate(0.000000,2501.000000) scale(0.100000,-0.100000)"
fill="#000000" stroke="none">
<path d="M12516 22442 c-4 -10 -2458 -1752 -5454 -3870 -2996 -2118 -5485
-3882 -5532 -3919 -118 -93 -362 -339 -450 -453 -341 -443 -545 -952 -600
-1499 -13 -135 -13 -429 1 -567 22 -227 87 -512 164 -720 77 -206 227 -491
348 -659 146 -203 358 -426 547 -577 112 -89 4876 -3458 4890 -3458 6 0 -72
96 -173 213 -1243 1444 -1927 2756 -2052 3935 -17 160 -20 515 -5 663 48 472
172 835 461 1351 992 1770 3022 4320 5959 7488 481 520 857 916 1663 1753 49
51 86 88 84 82 -3 -5 -1369 -2190 -3036 -4854 -1668 -2664 -3030 -4848 -3029
-4852 7 -18 2544 -4068 2548 -4068 5 0 6348 9778 6352 9793 4 14 -2656 4235
-2669 4236 -6 0 -14 -8 -17 -18z"/>
<path d="M18620 18293 c1 -4 13 -22 28 -39 777 -888 1288 -1619 1667 -2385
612 -1237 716 -2328 313 -3279 -77 -181 -227 -459 -440 -813 -1030 -1718
-3024 -4192 -5733 -7112 -502 -541 -919 -982 -1638 -1729 -44 -44 -72 -69 -64
-55 8 14 1373 2181 3033 4815 1659 2634 3018 4796 3018 4805 1 19 -2615 4179
-2626 4176 -12 -4 -6352 -9782 -6352 -9797 0 -12 2680 -4307 2704 -4333 4 -5
19 9 32 31 20 34 890 653 5408 3847 2962 2094 5437 3846 5500 3893 142 107
417 379 524 520 479 631 679 1415 561 2195 -74 492 -276 957 -587 1350 -92
116 -316 343 -430 435 -58 47 -4841 3436 -4906 3475 -6 5 -12 5 -12 0z"/>
</g>
</svg>
